<?xml version="1.0" encoding="UTF-8"?>
<!DOCTYPE svg PUBLIC "-//W3C//DTD SVG 1.1//EN" "http://www.w3.org/Graphics/SVG/1.1/DTD/svg11.dtd">
<!-- Creator: CorelDRAW 2021 (64-Bit) -->
<svg xmlns="http://www.w3.org/2000/svg" xml:space="preserve" width="0.765063in" height="0.21963in" version="1.1" style="shape-rendering:geometricPrecision; text-rendering:geometricPrecision; image-rendering:optimizeQuality; fill-rule:evenodd; clip-rule:evenodd"
viewBox="0 0 765.06 219.63"
 xmlns:xlink="http://www.w3.org/1999/xlink"
 xmlns:xodm="http://www.corel.com/coreldraw/odm/2003">
 <defs>
  <style type="text/css">
   <![CDATA[
    .fil1 {fill:#00566A;fill-rule:nonzero}
    .fil0 {fill:#007EC4;fill-rule:nonzero}
   ]]>
  </style>
 </defs>
 <g id="Layer_x0020_1">
  <metadata id="CorelCorpID_0Corel-Layer"/>
  <g id="_2304475227152">
   <polygon class="fil0" points="35.81,0.32 0.01,102.5 0.01,0.32 "/>
   <polygon class="fil0" points="79.17,0.32 2.43,219.3 0,219.3 0,124.04 43.36,0.32 "/>
   <polygon class="fil0" points="122.53,0.33 45.79,219.3 9.99,219.3 86.72,0.33 "/>
   <polygon class="fil0" points="755.07,0.33 678.34,219.3 642.54,219.3 719.28,0.33 "/>
   <polygon class="fil0" points="765.06,0.32 765.06,95.58 721.7,219.3 685.9,219.3 762.63,0.32 "/>
   <polygon class="fil0" points="765.06,117.13 765.06,219.3 729.26,219.3 "/>
   <path class="fil1" d="M131.46 134.22l29.4 -83.88 29.39 83.88 -58.79 0zm53.82 -134.22l-48.86 0 -76.97 219.64 42.07 0 17.71 -50.56 83.23 0 17.71 50.56 42.07 0 -76.96 -219.64z"/>
   <polygon class="fil1" points="373.53,-0 373.53,41.57 309.44,41.57 309.44,219.63 270.02,219.63 270.02,41.57 206.54,41.57 206.43,41.27 191.96,-0 "/>
   <polygon class="fil1" points="418.33,41.49 418.33,89.57 524.15,89.57 524.15,130.57 418.33,130.57 418.33,178.64 541.75,178.64 541.75,219.63 378.9,219.63 378.9,-0 418.33,-0 541.75,-0 541.75,41.49 "/>
   <polygon class="fil1" points="704.8,-0 690.49,40.85 690.27,41.49 586.16,41.49 586.16,89.57 673.42,89.57 659.05,130.57 586.16,130.57 586.16,219.63 546.74,219.63 546.74,-0 "/>
  </g>
 </g>
</svg>
