<?xml version="1.0" encoding="UTF-8"?>
<!DOCTYPE svg PUBLIC "-//W3C//DTD SVG 1.1//EN" "http://www.w3.org/Graphics/SVG/1.1/DTD/svg11.dtd">
<!-- Creator: CorelDRAW 2021 (64-Bit) -->
<svg xmlns="http://www.w3.org/2000/svg" xml:space="preserve" width="0.765079in" height="0.219646in" version="1.1" style="shape-rendering:geometricPrecision; text-rendering:geometricPrecision; image-rendering:optimizeQuality; fill-rule:evenodd; clip-rule:evenodd"
viewBox="0 0 765.08 219.65"
 xmlns:xlink="http://www.w3.org/1999/xlink"
 xmlns:xodm="http://www.corel.com/coreldraw/odm/2003">
 <defs>
  <style type="text/css">
   <![CDATA[
    .fil0 {fill:white;fill-rule:nonzero}
   ]]>
  </style>
 </defs>
 <g id="Layer_x0020_1">
  <metadata id="CorelCorpID_0Corel-Layer"/>
  <g id="_1979544232464">
   <polygon class="fil0" points="51.65,8.15 17.53,105.55 17.53,8.15 "/>
   <polygon class="fil0" points="92.98,8.15 19.83,216.88 17.52,216.88 17.52,126.08 58.85,8.15 "/>
   <polygon class="fil0" points="134.31,8.16 61.17,216.88 27.04,216.88 100.18,8.16 "/>
   <polygon class="fil0" points="737.25,8.16 664.11,216.88 629.99,216.88 703.13,8.16 "/>
   <polygon class="fil0" points="746.78,8.15 746.78,98.95 705.44,216.88 671.32,216.88 744.46,8.15 "/>
   <polygon class="fil0" points="746.78,119.49 746.78,216.88 712.65,216.88 "/>
   <path class="fil0" d="M142.82 135.78l28.03 -79.96 28.02 79.96 -56.04 0zm51.31 -127.94l-46.57 0 -73.37 209.37 40.1 0 16.88 -48.19 79.33 0 16.88 48.19 40.1 0 -73.36 -209.37z"/>
   <polygon class="fil0" points="373.57,7.84 373.57,47.47 312.48,47.47 312.48,217.2 274.9,217.2 274.9,47.47 214.39,47.47 214.29,47.19 200.49,7.84 "/>
   <polygon class="fil0" points="416.27,47.39 416.27,93.22 517.14,93.22 517.14,132.3 416.27,132.3 416.27,178.13 533.91,178.13 533.91,217.2 378.69,217.2 378.69,7.84 416.27,7.84 533.91,7.84 533.91,47.39 "/>
   <polygon class="fil0" points="689.33,7.84 675.69,46.78 675.48,47.39 576.25,47.39 576.25,93.22 659.42,93.22 645.72,132.3 576.25,132.3 576.25,217.2 538.67,217.2 538.67,7.84 "/>
  </g>
 </g>
</svg>
