<?xml version="1.0" encoding="UTF-8"?>
<svg data-bbox="281 1030 1918 1447.997" viewBox="0 0 2480 3507" height="3508" width="2480" xmlns="http://www.w3.org/2000/svg" shape-rendering="geometricPrecision" text-rendering="geometricPrecision" image-rendering="optimizeQuality" fill-rule="evenodd" clip-rule="evenodd" data-type="shape">
    <g>
        <path d="M953 1668h523l-1 38-520 1-2-39zm519-275c7 8 9-16 7 20l-25 6v230l-479-1c-4-67 3-151 0-202-4-69-17-1-22-52l83-1c10 4 6-13 9 18 4-2 12-4 17-6 6-18 4-11 34-12 21-1 28 1 50-2 7 9 10-21 7 21l-26 10v186l65 1v-192l-24-6c-2-32-1-11 6-18l84 6-21 24v186h65l-12-195c-9-10-3 10-10-15 2-1 4-3 5-2l15-3c35-5 55 1 57 2 2 0 4 1 5 1 1 1 3 1 5 2l-22 24v186l66-1c-1-38-1-76 0-113 0-16 2-46 0-60-3-33-1-12-8-20-13-16-8 2-14-16 18-10 61-5 83-6zm-465-18c-49 1-47 3-54-12 12-7-15-6 24-9h477c24 3 9-6 20 9-9 16 9 9-25 12h-442zm304-179c1 1 2 3 3 3l14 17c14 17 11 25 9 52l-2 67-54-3 1-15v-78c0-15-1-14 17-32l12-11zm-130 133 1-16c18-16 3 6 5-24l-1-18v-6l-1-22v-2c0-12-1-6 1-13l24-33 31 37-1 58v2l1 18c0 1-1 3-1 3v20c-25 3-40 5-59-4zm-37-35v20c0 21 5 10 0 20l-53-1-2-102 20-28c8-7-4-2 11-7 20 31 26 23 24 55v43zm-338 486c198 34 251 32 402 193 52-20 82-121 277-173 47-12 89-11 134-21v-748c-32-2-159 32-199 41-50 11-160 41-205 44-60 3-317-80-410-86l1 750z"/>
        <path d="M1334 2014c20-7 26-19 46-32 51-34 100-51 161-66 43-10 83-17 128-22 62-7 124 2 124-23l-1-792c-37 0-90 29-131 37v717c-78 25-123 19-198 58-43 22-117 80-129 123z"/>
        <path d="M1030 1971c16-4 16 3 7-4 5-13 3-5 2-22-82-87-210-89-271-110-19-58-4-610-4-717l-133-45c0 113-13 761 3 813 172 9 253 20 396 85z"/>
        <path d="M526 1965c66 15 156 13 229 27 63 12 150 51 196 56-52-44-69-61-152-88-77-25-129-19-207-32v-734c-25-8-41-26-66-26v797z"/>
        <path d="M1481 2045c128-20 136-69 411-76 9-30 6-719 4-804-25 8-36 20-62 29l-2 733c-70 15-286 20-351 118z"/>
        <path d="M1938 2360c18-23 38-103 52-136v137l35-2-2-193-47 1-50 144-50-145h-47v195l35-2 1-127c1 1 2 3 3 4 0 2 2 3 2 5l41 120 27-1z"/>
        <path d="M1552 2202c52-7 85 11 84 63 0 48-36 68-84 58v-121zm-35 159c87-2 153-1 155-96 1-96-69-100-155-100v196z"/>
        <path d="M357 2433c-67 0-68-8-76 11 17 18 2 12 76 11 162 0 440 7 585 1 31-1 21 5 29-12-8-17-4-11-35-12l-579 1z"/>
        <path d="M1580 2433c-68 0-63-8-74 11 22 18 33 12 80 11 164 0 429 7 579 1 31-1 22 5 31-12-4-7 1-11-37-12l-579 1z"/>
        <path d="M1025 2222c12 13 9 10 15 28 5 15 5 12 6 25h-38l17-53zm-30 89h67l23 49h35c-10-35-27-71-42-106-36-86-23-87-59-89-17 17-71 162-83 196l37-1 22-49z"/>
        <path d="m422 2223 17 53-39-2 22-51zm-35 88h68l19 50 39-1-80-195-22 1c-15 15-72 163-83 194l39-1 20-48z"/>
        <path d="m1407 2225 19 50-38 1c2-20 9-39 19-51zm-38 85 73 1 17 50h40l-80-196h-24c-25 34-58 148-81 194l38 1 17-50z"/>
        <path d="M1304 2308c-32-1-26-4-49 9-62 36-99-14-100-52-1-35 24-63 55-67 46-5 36 24 94 23-16-84-187-83-184 44 3 111 148 136 184 43z"/>
        <path d="m672 2201 66-2-1-33H636v195l102-1-1-34h-66v-45l63-4v-31h-62v-45z"/>
        <path d="m1045 1411-27 6v192h66v-192c-24-10-13 4-22-12-5 2-13 4-17 6z"/>
        <path d="m1700 2360 98-2v-32l-65 1c-7-6-6 5-7-20-1-14 2-16 6-27l64-2-1-32-64-2v-43h64v-33h-95v192z"/>
        <path d="M2139 2359c0-134 32-99 60-194l-37 3c-15 28-26 58-42 84l-41-87-34 1c5 24 28 65 41 89 24 46 18 48 18 106l35-2z"/>
        <path d="M804 2200h62l-3-35h-94l-1 196 35-1 1-79 57-1v-33l-57-1v-46z"/>
        <path d="M583 2206c21-11 17 2 35-12l-1-28-104-1-1 29c1 1 3 1 4 1 1 1 4 2 5 2l26 9v155l35-1 1-154z"/>
        <path d="M1700 2360v-192h95v33c4-8 4 0 6-19 1-8-1-10-2-17-29-6-76-6-105 1 0 19-8 183 6 194z"/>
        <path d="M1347 2464c-11-7-14 0-13-26 1-27 0-15 13-21 24 27 3 42 0 47zm15-53c-46-22-46 38-36 54 19 31 56 4 36-54z"/>
        <path d="M1209 2438c17-9 8-9 24-2-9 9 4 5-12 8-29 5-5-1-12-6zm30 32c-6-4-20-5-29-14l39-3c-7-20-20-45-44-26-17 13-8 32 1 47l33-4z"/>
        <path d="M1028 2425c2-19 16 12 25-11-16-13-8-11-33-4-10 45 6 15 23 46-1 1-3 2-3 2l-8 1c-12 1-8-4-18 5 15 12 34 17 40-3 7-23-15-27-26-36z"/>
        <path d="M1317 2474c-10-22 4-2-23-17 17-10 22-13 21-41-20-16-34-20-41 14 45-28 32 3 17 18-12 12-12 6-17 27l43-1z"/>
        <path d="M1395 2456c21-12 30-25 12-48-26-3-18-8-32 13 15 10 5-3 21-2 30 1-16 31-22 56l44-2c-6-13 0-3-11-11l-12-6z"/>
        <path d="M1097 2474c0-7-1-23 1-29 6-22 0-6 10-11 18 20 4 17 12 39 7-6 11 16 10-23 0-36-26-27-43-27-11 65 3 48 10 51z"/>
        <path d="M1030 1971c19 15 44 38 68 51-10-34-36-53-59-77 1 17 3 9-2 22 9 7 9 0-7 4z"/>
        <path d="M1151 2438c11-8 19 6 34-6-23-19-28-11-47 2l4 37c25 6 28 11 43-11l-33 1-1-23z"/>
        <path d="M1454 2474c8-12 9-36 6-54-1-9-3-10-6-14-19 9-12 7-26 26 1 1 3 2 4 2h4c32 2-7-8 12-2 1 38-4 26 6 42z"/>
        <path d="m1733 2327 1-43c20 0 44 4 62-6l-64 2c-4 11-7 13-6 27 1 25 0 14 7 20z"/>
        <path d="M1075 2406c-8 11-5 2-10 18l2 49c10-10 3 6 8-11v-56z"/>
        <path d="m1239 2470 10-17-39 3c9 9 23 10 29 14z"/>
        <path d="M1209 2438c7 5-17 11 12 6 16-3 3 1 12-8-16-7-7-7-24 2z"/>
        <path d="m1181 1329 12-9-11-7-1 16z"/>
    </g>
</svg>
