<svg viewBox="0 0 24 16" xmlns="http://www.w3.org/2000/svg"><path d="M0 0h24v16H0V0z" fill="#3F9C35"/><path d="M0 0h24v11H0V0z" fill="#ED2939"/><path d="M0 0h24v5H0V0z" fill="#00B9E4"/><path d="M11.419 10.4A2.41 2.41 0 0013.837 8a2.41 2.41 0 00-2.418-2.4A2.41 2.41 0 009 8a2.41 2.41 0 002.419 2.4z" fill="#fff"/><path d="M11.956 10a2.008 2.008 0 002.016-2c0-1.105-.902-2-2.016-2a2.008 2.008 0 00-2.015 2c0 1.105.902 2 2.015 2z" fill="#ED2939"/><path d="M14.106 6.667l.259.716.692-.326-.33.69.723.253-.722.257.329.686-.692-.326-.259.716-.258-.716-.693.326.33-.686L12.762 8l.723-.257-.33-.686.693.326.258-.716z" fill="#fff"/></svg>