<?xml version="1.0" encoding="UTF-8"?>
<svg data-bbox="465 978.495 1550.125 1550.505" viewBox="0 0 2480 3507" height="3508" width="2480" xmlns="http://www.w3.org/2000/svg" shape-rendering="geometricPrecision" text-rendering="geometricPrecision" image-rendering="optimizeQuality" fill-rule="evenodd" clip-rule="evenodd" data-type="shape">
    <g>
        <path d="M1090 2429h450v50h-450v-50zm-112-600c103 0 111 99 125 168l15 82c70 0 59 12 88-50 11-25 9-41 9-75 0-39-3-442 1-455 9-30 49-23 49 8v397h50v-97c0-37 50-37 50 0v97h50v-97c0-37 50-37 50 0v97h50c0-21-8-75 25-75 12 0 25 14 25 28v312c0 86-75 133-75 153v57h-350c0-107-5-55-54-168-17-41-43-75-50-122l-20-152c-15-58-76-108-38-108zm671-116c8-28 100-88 186-42 15 9 41 25 45 42-7 11-34 24-49 29-46 15-86 15-132 0-15-5-42-18-50-29zm-1049 0c7-28 99-88 185-42 15 9 41 25 46 42-17 23-84 41-116 41-31 0-98-18-115-41zm1090-184c0-63 79-101 127-53 69 69-36 174-105 105-10-10-22-33-22-52zm-1050 0c0-20 12-42 23-53 30-30 76-28 105 0 69 69-36 174-105 105-10-10-23-33-23-52zm600-200c15 0 37 5 50 10 15 5 26 11 38 20 31 23 35 37 53 70-21 14-45 31-72 37-5-3-50-65-112-24-15 10-12 15-26 24-27-6-51-23-72-37 20-38 38-72 89-90 14-4 36-10 52-10zm400 190c0 70 18 70 41 103-57 30-59 49-75 54-3-10-19-30-28-54-23-60-12-134 23-182 115-154 325-80 357 67 23 103-28 147-34 169-16-5-40-44-75-54 23-33 41-33 41-103 0-57-58-115-116-115h-19c-57 0-115 58-115 115zm-1050 0c0 28 0 41 14 68 7 15 19 23 27 35-15 8-26 13-40 24-12 9-19 25-35 30-3-12-9-16-15-26-5-10-9-19-13-28-71-185 162-363 326-210 54 49 75 136 49 208-4 11-8 18-13 28-5 9-13 17-16 28-15-4-22-20-33-29-9-7-31-22-42-25 9-12 20-20 28-35 43-85-22-183-102-183h-19c-58 0-116 58-116 115zm575-315c0-63 79-101 127-53 30 30 30 76 0 105-49 50-127 8-127-52zm-50-10c0 71 20 72 41 104-18 4-43 25-56 38-25 25-35 48-41 52-3-12-80-108-23-226 27-55 57-86 112-112 56-27 128-27 184 0 138 67 168 229 92 331-3 4-4 5-6 7-7-28-65-84-94-90 8-13 20-21 28-36 43-85-22-183-103-183h-18c-58 0-116 58-116 115zm-150 44-135 74c-13 8-13 12-29 7-181-62-336 78-336 222 0 82 22 139 73 190 98 98 258 97 354 0 95-95 97-236 11-343-5-6-12-14-18-19-10-8-13-8-20-18 11-3 16-8 25-13l51-27c9-6 16-11 27-13 7 85 80 172 163 209 10 5 34 7 34 19v446c0 15-3 23-6 35l-23-108c-27-107-153-144-195-110-26 21-26 37-26 62 0 27 46 58 53 112l19 147c12 57 103 211 103 231v38h-50v150h550v-150h-50c0-50-5-35 23-71 25-34 52-68 52-120v-341c0-38-33-68-81-68-11 0-12 2-22 3-8-35-39-53-78-53-23 0-36 15-44 15-11 0-23-24-75-12v-213c21-9 37-9 71-31 62-40 120-118 126-190 19 4 89 49 103 53-10 14-39 26-67 77-101 183 42 376 204 376 82 0 140-23 190-73 97-97 98-257 0-355-67-67-168-91-260-58-19 6-20 2-56-19l-111-61c0-65-37-136-81-179-25-25-41-36-74-53-72-36-166-37-238-1-34 17-51 29-76 54-25 24-38 43-54 75-12 25-27 69-27 104z"/>
        <path d="M615 2254c0-32 50-32 50 0 0 31-50 31-50 0zm0-79c0 19-50 12-50 85 0 38 33 69 81 69 69 0 96-103 35-138-8-5-16-6-16-16v-321h-50v321z"/>
        <path d="M1715 2254c0-32 50-32 50 0 0 31-50 31-50 0zm0-79c0 19-50 12-50 85 0 38 33 69 81 69 69 0 96-103 35-138-8-5-16-6-16-16v-321h-50v321z"/>
        <path d="M1865 1929c0-32 50-32 50 0 0 31-50 31-50 0zm-50-7c0 25 1 35 17 55 6 7 10 10 17 15 8 5 16 5 16 15v322h50v-322c0-19 50-11 50-85 0-38-33-68-81-68-35 0-69 34-69 68z"/>
        <path d="M765 1929c0-32 50-32 50 0 0 31-50 31-50 0zm-50-7c0 73 50 67 50 85v322h50v-322c0-13 16-11 32-28 34-38 24-125-63-125-35 0-69 34-69 68z"/>
    </g>
</svg>
