<?xml version="1.0" encoding="UTF-8"?>
<svg data-bbox="361 885 1758 1737.133" viewBox="0 0 2480 3507" height="3508" width="2480" xmlns="http://www.w3.org/2000/svg" shape-rendering="geometricPrecision" text-rendering="geometricPrecision" image-rendering="optimizeQuality" fill-rule="evenodd" clip-rule="evenodd" data-type="shape">
    <g>
        <path d="M643 1772c0-178 42-278 139-403 49-64 133-122 205-158 180-89 436-68 596 52 15 12 28 22 42 32 63 50 122 134 157 206 89 180 68 436-52 596-69 91-132 147-237 199-181 88-436 68-596-53-15-11-28-21-42-32-35-27-76-77-103-112-61-81-109-214-109-327zm-282-136c0 80 14 90 50 163 17 34 52 87 52 134 0 120-75 278 81 359 27 14 59 25 89 39 29 13 64 25 87 41 40 30 77 96 109 144 22 33 28 45 59 69 117 93 244-18 356-18 37 0 80 17 112 27 84 24 152 52 234-7 67-48 104-167 170-215 88-63 275-61 275-249 0-64-18-123-18-187 0-81 102-190 102-271 0-40 0-66-23-104-27-43-64-69-99-103-18-18-33-34-51-52-95-93-3-363-292-360-32 1-120-7-140-14-23-8-44-22-63-36-55-42-131-111-196-111-85 0-100 17-164 64-33 25-83 67-120 81-69 28-194 3-266 38-27 14-39 24-58 45-38 45-40 81-56 145-16 66-18 109-62 154l-96 91c-33 33-72 76-72 133z"/>
        <path d="M1170 1995c-46 0-76-42-101-67-29-29-56-55-85-84-25-26-65-54-72-96-8-46 27-90 83-90 62 0 145 134 179 143 5-17 22-28 34-39l114-114c25-26 49-49 75-75 29-29 85-99 146-39 69 69-13 129-57 173l-49 49-200 203c-16 16-36 36-67 36zm-472-242c0 298 244 542 542 542s542-244 542-542-244-542-542-542-542 244-542 542z"/>
    </g>
</svg>
